<svg width="64" height="64" viewBox="0 0 64 64" fill="none" xmlns="http://www.w3.org/2000/svg">
<rect width="64" height="64" fill="black"/>
<path d="M8.508 29.92C8.508 27.856 8.892 26.044 9.66 24.484C10.452 22.924 11.52 21.724 12.864 20.884C14.208 20.044 15.708 19.624 17.364 19.624C18.78 19.624 20.016 19.912 21.072 20.488C22.152 21.064 22.98 21.82 23.556 22.756V19.912H29.712V40H23.556V37.156C22.956 38.092 22.116 38.848 21.036 39.424C19.98 40 18.744 40.288 17.328 40.288C15.696 40.288 14.208 39.868 12.864 39.028C11.52 38.164 10.452 36.952 9.66 35.392C8.892 33.808 8.508 31.984 8.508 29.92ZM23.556 29.956C23.556 28.42 23.124 27.208 22.26 26.32C21.42 25.432 20.388 24.988 19.164 24.988C17.94 24.988 16.896 25.432 16.032 26.32C15.192 27.184 14.772 28.384 14.772 29.92C14.772 31.456 15.192 32.68 16.032 33.592C16.896 34.48 17.94 34.924 19.164 34.924C20.388 34.924 21.42 34.48 22.26 33.592C23.124 32.704 23.556 31.492 23.556 29.956ZM40.3216 22.756C40.9216 21.82 41.7496 21.064 42.8056 20.488C43.8616 19.912 45.0976 19.624 46.5136 19.624C48.1696 19.624 49.6696 20.044 51.0136 20.884C52.3576 21.724 53.4136 22.924 54.1816 24.484C54.9736 26.044 55.3696 27.856 55.3696 29.92C55.3696 31.984 54.9736 33.808 54.1816 35.392C53.4136 36.952 52.3576 38.164 51.0136 39.028C49.6696 39.868 48.1696 40.288 46.5136 40.288C45.1216 40.288 43.8856 40 42.8056 39.424C41.7496 38.848 40.9216 38.104 40.3216 37.192V49.576H34.1656V19.912H40.3216V22.756ZM49.1056 29.92C49.1056 28.384 48.6736 27.184 47.8096 26.32C46.9696 25.432 45.9256 24.988 44.6776 24.988C43.4536 24.988 42.4096 25.432 41.5456 26.32C40.7056 27.208 40.2856 28.42 40.2856 29.956C40.2856 31.492 40.7056 32.704 41.5456 33.592C42.4096 34.48 43.4536 34.924 44.6776 34.924C45.9016 34.924 46.9456 34.48 47.8096 33.592C48.6736 32.68 49.1056 31.456 49.1056 29.92Z" fill="white"/>
</svg>
