<svg width="64" height="64" viewBox="0 0 64 64" fill="none" xmlns="http://www.w3.org/2000/svg">
<rect width="64" height="64" fill="black"/>
<path d="M14.42 44V20.64H20.02L26.068 38.72C26.004 37.9307 25.9293 37.024 25.844 36C25.7587 34.9547 25.684 33.92 25.62 32.896C25.5773 31.8507 25.556 30.9653 25.556 30.24V20.64H29.78V44H24.18L18.196 25.92C18.26 26.6027 18.324 27.4133 18.388 28.352C18.452 29.2907 18.5053 30.24 18.548 31.2C18.612 32.16 18.644 33.0133 18.644 33.76V44H14.42ZM41.2875 44.32C39.6448 44.32 38.2155 44.0427 36.9995 43.488C35.7835 42.9333 34.8448 42.1547 34.1835 41.152C33.5222 40.1493 33.1915 38.9653 33.1915 37.6H37.9915C37.9915 38.3893 38.2902 39.0187 38.8875 39.488C39.5062 39.936 40.3382 40.16 41.3835 40.16C42.3862 40.16 43.1648 39.936 43.7195 39.488C44.2955 39.04 44.5835 38.4213 44.5835 37.632C44.5835 36.9493 44.3702 36.3627 43.9435 35.872C43.5168 35.3813 42.9195 35.0507 42.1515 34.88L39.7835 34.336C37.7995 33.8667 36.2528 33.0027 35.1435 31.744C34.0555 30.464 33.5115 28.9067 33.5115 27.072C33.5115 25.024 34.2048 23.392 35.5915 22.176C36.9782 20.9387 38.8555 20.32 41.2235 20.32C43.6128 20.32 45.5008 20.9173 46.8875 22.112C48.2955 23.2853 48.9995 24.8747 48.9995 26.88H44.1995C44.1995 26.1333 43.9328 25.5467 43.3995 25.12C42.8875 24.6933 42.1408 24.48 41.1595 24.48C40.2422 24.48 39.5382 24.6933 39.0475 25.12C38.5568 25.5467 38.3115 26.176 38.3115 27.008C38.3115 27.6267 38.5142 28.1813 38.9195 28.672C39.3462 29.1413 39.9542 29.4613 40.7435 29.632L43.0795 30.176C45.1488 30.6453 46.7168 31.4987 47.7835 32.736C48.8502 33.952 49.3835 35.5093 49.3835 37.408C49.3835 38.7733 49.0422 39.9787 48.3595 41.024C47.6982 42.0693 46.7595 42.88 45.5435 43.456C44.3488 44.032 42.9302 44.32 41.2875 44.32Z" fill="white"/>
</svg>
