<svg width="64" height="64" viewBox="0 0 64 64" fill="none" xmlns="http://www.w3.org/2000/svg">
<rect width="64" height="64" fill="black"/>
<path d="M17.156 43.724C14.6733 43.724 12.6853 43.2573 11.192 42.324C9.69867 41.372 8.952 39.9253 8.952 37.984C8.952 36.9573 9.12933 36.1733 9.484 35.632C9.83867 35.0907 10.3613 34.82 11.052 34.82C11.556 34.82 11.9667 34.9507 12.284 35.212C12.6013 35.4733 12.76 35.8093 12.76 36.22C12.76 36.5933 12.732 36.92 12.676 37.2C12.676 37.2747 12.6573 37.4053 12.62 37.592C12.6013 37.7787 12.592 37.9747 12.592 38.18C12.592 39.02 13.012 39.6453 13.852 40.056C14.7107 40.4667 15.9053 40.672 17.436 40.672C19.0227 40.672 20.264 40.392 21.16 39.832C22.056 39.2533 22.504 38.4507 22.504 37.424C22.504 36.7893 22.2987 36.248 21.888 35.8C21.4773 35.3333 20.964 34.9507 20.348 34.652C19.732 34.3347 18.864 33.952 17.744 33.504C16.3067 32.944 15.1307 32.412 14.216 31.908C13.32 31.404 12.5453 30.7227 11.892 29.864C11.2573 28.9867 10.94 27.904 10.94 26.616C10.94 25.272 11.2947 24.0773 12.004 23.032C12.732 21.9867 13.768 21.1747 15.112 20.596C16.4747 20.0173 18.0707 19.728 19.9 19.728C21.2627 19.728 22.5133 19.9333 23.652 20.344C24.7907 20.736 25.696 21.3427 26.368 22.164C27.0587 22.9853 27.404 23.9933 27.404 25.188C27.404 26.364 27.2267 27.2507 26.872 27.848C26.5173 28.4453 25.9947 28.744 25.304 28.744C24.8187 28.744 24.408 28.5947 24.072 28.296C23.7547 27.9973 23.596 27.6427 23.596 27.232C23.596 26.8773 23.624 26.5507 23.68 26.252C23.736 25.692 23.764 25.3373 23.764 25.188C23.764 24.404 23.3813 23.8067 22.616 23.396C21.8507 22.9853 20.8987 22.78 19.76 22.78C18.1547 22.78 16.9227 23.0787 16.064 23.676C15.224 24.2547 14.804 25.076 14.804 26.14C14.804 26.8493 15.0187 27.456 15.448 27.96C15.896 28.464 16.4467 28.884 17.1 29.22C17.7533 29.556 18.668 29.9573 19.844 30.424C21.2627 31.0027 22.4013 31.5253 23.26 31.992C24.1187 32.4587 24.8467 33.0933 25.444 33.896C26.06 34.6987 26.368 35.688 26.368 36.864C26.368 39.0667 25.528 40.7653 23.848 41.96C22.1867 43.136 19.956 43.724 17.156 43.724ZM54.6861 37.256C54.9287 37.256 55.1154 37.368 55.2461 37.592C55.3954 37.816 55.4701 38.124 55.4701 38.516C55.4701 39.244 55.2927 39.8227 54.9381 40.252C53.0901 42.5107 51.1207 43.64 49.0301 43.64C47.2194 43.64 45.7727 42.94 44.6901 41.54C43.6074 40.14 43.0661 38.1333 43.0661 35.52C43.0661 34.8853 43.0941 34.2507 43.1501 33.616C41.9181 33.84 40.5741 34.008 39.1181 34.12C38.1474 34.1947 37.4847 34.2413 37.1301 34.26C36.7567 36.164 36.2341 38.4973 35.5621 41.26C35.1701 42.884 34.4234 43.696 33.3221 43.696C32.1274 43.696 31.5301 43.1547 31.5301 42.072C31.5301 41.8293 31.5767 41.4933 31.6701 41.064C32.3047 38.5067 32.8087 36.3413 33.1821 34.568L31.8381 34.624C31.2221 34.624 30.7741 34.5213 30.4941 34.316C30.2141 34.092 30.0741 33.7373 30.0741 33.252C30.0741 32.636 30.2514 32.188 30.6061 31.908C30.9607 31.6093 31.5487 31.4413 32.3701 31.404L33.8541 31.348C34.3394 28.716 34.5821 26.7093 34.5821 25.328C34.5821 24.4507 34.4514 23.8533 34.1901 23.536C33.9287 23.2187 33.5834 23.06 33.1541 23.06C31.8474 23.06 30.3727 24.152 28.7301 26.336C28.4874 26.6533 28.2167 26.812 27.9181 26.812C27.6567 26.812 27.4327 26.6907 27.2461 26.448C27.0594 26.2053 26.9661 25.8973 26.9661 25.524C26.9661 24.9453 27.1994 24.3293 27.6661 23.676C28.4874 22.5373 29.5234 21.604 30.7741 20.876C32.0247 20.1293 33.2941 19.756 34.5821 19.756C35.7954 19.756 36.7287 20.176 37.3821 21.016C38.0541 21.8373 38.3901 23.1253 38.3901 24.88C38.3901 26.4293 38.1661 28.5293 37.7181 31.18L40.4621 31.04C41.6381 30.984 42.6461 30.8907 43.4861 30.76C43.8221 28.7067 44.3354 26.784 45.0261 24.992C45.7167 23.2 46.5754 21.744 47.6021 20.624C48.6287 19.504 49.7767 18.944 51.0461 18.944C51.9794 18.944 52.7167 19.3173 53.2581 20.064C53.7994 20.792 54.0701 21.7533 54.0701 22.948C54.0701 27.5773 51.7087 30.788 46.9861 32.58C46.9301 33.3267 46.9021 34.1013 46.9021 34.904C46.9021 36.864 47.1447 38.2547 47.6301 39.076C48.1154 39.8973 48.7967 40.308 49.6741 40.308C50.4394 40.308 51.1394 40.112 51.7741 39.72C52.4087 39.3093 53.1274 38.6187 53.9301 37.648C54.1541 37.3867 54.4061 37.256 54.6861 37.256ZM50.9061 21.38C50.4954 21.38 50.0567 21.7533 49.5901 22.5C49.1421 23.2467 48.7127 24.264 48.3021 25.552C47.8914 26.84 47.5647 28.2493 47.3221 29.78C48.8154 29.164 49.9167 28.2867 50.6261 27.148C51.3354 26.0093 51.6901 24.544 51.6901 22.752C51.6901 22.3227 51.6154 21.9867 51.4661 21.744C51.3167 21.5013 51.1301 21.38 50.9061 21.38Z" fill="white"/>
</svg>
